<svg version="1" xmlns="http://www.w3.org/2000/svg" width="346.667" height="346.667" viewBox="0 0 260.000000 260.000000"><path d="M110 2.5c-23 3.9-41.4 12-59.5 26C4.4 64.4-11.6 127 11.5 181c27.9 65.2 104 95.5 169.5 67.5 47.1-20.2 78-67 78-118.5C259 58.4 200.6.5 129 1.1c-6.3.1-14.9.7-19 1.4zm32 9.5c41.5 4.4 76.5 29 94.6 66.5 22.1 45.8 13 99.6-22.7 135.4-35.8 35.7-89.6 44.8-135.4 22.7C19.2 208-5.2 137.9 23.4 78.5c11.9-24.6 31-43.6 55.7-55.5 20.3-9.6 41.1-13.3 62.9-11z"/><path d="M33.9 66.7c-1.5 1.7-1.8 8.6-.7 11.5.7 1.6 2.6 1.8 19.8 1.8h19v56.9c0 49.9.2 57 1.5 58.1 2.1 1.8 10.4 2.4 13.8 1.1L90 195V80l19.8-.2 19.7-.3.3-5.8c.2-3.5-.2-6.4-.9-7.3-1-1.2-8.7-1.4-47.4-1.4-41.8 0-46.4.2-47.6 1.7zM151.8 67l-2.8 2.1V195l2.8 1.1c3.3 1.3 11.6.7 13.7-1.1 1.3-1 1.5-4.8 1.5-24.5v-23.2l12.9-.7c7.1-.4 15.5-1.3 18.7-2.2 16.9-4.4 28.6-17.6 30.2-34.2 1.9-18-4.1-31.7-16.8-38.6-9.1-5-13.9-5.8-36.5-6.3-20.4-.5-21.1-.4-23.7 1.7zm46.8 16.1c9.3 4.8 14 16.1 11.5 28-3.1 14.8-12.6 20.9-32.8 20.9H167V79.8l13.3.4c11.9.3 13.9.6 18.3 2.9z"/></svg>