<svg xmlns="http://www.w3.org/2000/svg" viewBox="-1.03 0 186.88 49.46">
    <defs>
        <style>.cls-1{fill:#eee;}.cls-2{fill:#d2d2d2;}</style>
    </defs>
    <g id="Layer_2" data-name="Layer 2">
        <g id="Logo">
            <g id="Share">
                <path class="cls-1" d="M53.16,49a18.3,18.3,0,0,1-3.85-1.27,14.94,14.94,0,0,1-3.23-2l2.62-4.66a12.7,12.7,0,0,0,4,2.19,14.2,14.2,0,0,0,4.66.78,8.27,8.27,0,0,0,4.29-.94,3,3,0,0,0,1.52-2.65v0a2.59,2.59,0,0,0-.68-1.9,4,4,0,0,0-1.77-1,21.66,21.66,0,0,0-2.8-.6l-.12,0-.11,0-.45-.06a28.62,28.62,0,0,1-5-1.19,7.24,7.24,0,0,1-3.36-2.5,8.08,8.08,0,0,1-1.38-5.06v0a9.11,9.11,0,0,1,1.3-5,8.22,8.22,0,0,1,3.77-3.14,16,16,0,0,1,9.27-.71,17.08,17.08,0,0,1,3.29,1.07A18.6,18.6,0,0,1,68.19,22l-2.4,4.78a15.3,15.3,0,0,0-3.62-1.85,10.89,10.89,0,0,0-3.61-.66,7.87,7.87,0,0,0-4,.85,2.68,2.68,0,0,0-1.42,2.41v0a2.82,2.82,0,0,0,.74,2.05,4.44,4.44,0,0,0,1.84,1.1,27.47,27.47,0,0,0,3.07.74l.17,0a.45.45,0,0,1,.16,0l.24.05.24.05A25,25,0,0,1,64.32,33a7.44,7.44,0,0,1,3.19,2.56,8.05,8.05,0,0,1,1.27,4.81v0a8.7,8.7,0,0,1-1.34,4.91,8.4,8.4,0,0,1-3.9,3.12,16.16,16.16,0,0,1-6.18,1.07A20.93,20.93,0,0,1,53.16,49Z"/>
                <path class="cls-1" d="M76.06,19.16h5.65v30H76.06Zm2.62,12.4H96.15V37H78.68Zm13.8-12.4h5.65v30H92.48Z"/>
                <path class="cls-1" d="M115.43,19.16H119l11.46,30H124.4l-7.18-20.48L110,49.15H104Zm-6,19.74h15.77v5.44H109.47Z"/>
                <path class="cls-1" d="M136.73,19.14h5.65v30h-5.65ZM139,31.64h10.43a2.71,2.71,0,0,0,1.53-.43A2.8,2.8,0,0,0,152,30a4.85,4.85,0,0,0,.38-1.86,4.46,4.46,0,0,0-.36-1.85A2.8,2.8,0,0,0,151,25a2.76,2.76,0,0,0-1.55-.43H139V19.14h10.88a8.35,8.35,0,0,1,4.36,1.12,7.47,7.47,0,0,1,2.9,3.14,10.27,10.27,0,0,1,1,4.71,10.28,10.28,0,0,1-1,4.72A7.49,7.49,0,0,1,154.21,36a8.43,8.43,0,0,1-4.35,1.11H139Zm6.31,4.52,6-.95,8.08,13.94h-6.84Z"/>
                <path class="cls-1" d="M166.79,19.16h5.65v30h-5.65Zm2,0h18v5.45h-18Zm0,12.38h15.78V37H168.83Zm0,12.16h18v5.45h-18Z"/>
            </g>
            <g id="Trygg">
                <path class="cls-1" d="M48.14.13h9V2.35h-9Zm3.34,1h2.31V12.39H51.48Z"/>
                <path class="cls-1" d="M58.86,1.48h2V12.39h-2ZM59.67,6h3.8A1,1,0,0,0,64,5.87a1,1,0,0,0,.37-.45,1.62,1.62,0,0,0,.14-.68,1.57,1.57,0,0,0-.13-.67A.93.93,0,0,0,64,3.62a1,1,0,0,0-.56-.16h-3.8v-2h4a3.08,3.08,0,0,1,1.59.41,2.76,2.76,0,0,1,1,1.14,3.71,3.71,0,0,1,.38,1.71,3.79,3.79,0,0,1-.38,1.72A2.72,2.72,0,0,1,65.21,7.6,3,3,0,0,1,63.63,8h-4ZM62,7.67l2.2-.35,2.94,5.07H64.62Z"/>
                <path class="cls-1" d="M73.25,8.19v4.2h-2V8.19L68,1.49h2.15l2.08,4.69,2.09-4.69h2.15Z"/>
                <path class="cls-1" d="M85.66,6.3V8.43a4.59,4.59,0,0,1-.49,2.14A3.57,3.57,0,0,1,83.77,12a4.13,4.13,0,0,1-2.08.5,4.4,4.4,0,0,1-2.1-.47,3.4,3.4,0,0,1-1.41-1.35,3.9,3.9,0,0,1-.5-2V5.45a4.47,4.47,0,0,1,.49-2.14,3.54,3.54,0,0,1,1.39-1.43,4.13,4.13,0,0,1,2.08-.5,4,4,0,0,1,1.8.4,3.78,3.78,0,0,1,1.38,1.13,4.14,4.14,0,0,1,.75,1.71H83.35A1.55,1.55,0,0,0,83,4a1.84,1.84,0,0,0-.61-.38,2,2,0,0,0-.73-.13,1.9,1.9,0,0,0-1,.24,1.56,1.56,0,0,0-.64.68,2.08,2.08,0,0,0-.23,1V8.67a1.83,1.83,0,0,0,.23.9,1.54,1.54,0,0,0,.66.6,2.19,2.19,0,0,0,1,.21,2,2,0,0,0,1-.23,1.59,1.59,0,0,0,.64-.67,2.19,2.19,0,0,0,.23-1V8.28H81.88v-2Z"/>
                <path class="cls-1" d="M96.05,6.3V8.43a4.47,4.47,0,0,1-.49,2.14A3.48,3.48,0,0,1,94.17,12a4.13,4.13,0,0,1-2.08.5A4.46,4.46,0,0,1,90,12a3.52,3.52,0,0,1-1.41-1.35,4,4,0,0,1-.49-2V5.45a4.47,4.47,0,0,1,.49-2.14A3.48,3.48,0,0,1,90,1.88,4.13,4.13,0,0,1,92,1.38a4,4,0,0,1,1.8.4,3.78,3.78,0,0,1,1.38,1.13A4.13,4.13,0,0,1,96,4.62H93.74a1.35,1.35,0,0,0-.37-.6,1.71,1.71,0,0,0-.6-.38A2,2,0,0,0,92,3.51a1.9,1.9,0,0,0-1,.24,1.64,1.64,0,0,0-.65.68,2.19,2.19,0,0,0-.23,1V8.67a1.73,1.73,0,0,0,.24.9,1.54,1.54,0,0,0,.66.6,2.19,2.19,0,0,0,1,.21,2,2,0,0,0,1-.23,1.59,1.59,0,0,0,.64-.67,2.19,2.19,0,0,0,.22-1V8.28H92.27v-2Z"/>
                <path class="cls-1" d="M100.94,12a3.48,3.48,0,0,1-1.52-1.56A5.36,5.36,0,0,1,98.89,8V4.58a5.41,5.41,0,0,1,.53-2.48A3.58,3.58,0,0,1,100.94.54,4.94,4.94,0,0,1,103.33,0a4.17,4.17,0,0,1,2.07.5,4,4,0,0,1,1.5,1.44,6.41,6.41,0,0,1,.83,2.29h-2.4a3,3,0,0,0-.42-1,1.94,1.94,0,0,0-.68-.66,1.83,1.83,0,0,0-.9-.23,2.11,2.11,0,0,0-1.1.27,1.64,1.64,0,0,0-.7.77,2.87,2.87,0,0,0-.24,1.23V8a2.82,2.82,0,0,0,.24,1.22,1.69,1.69,0,0,0,.7.77,2.11,2.11,0,0,0,1.1.27,1.84,1.84,0,0,0,.91-.23,1.85,1.85,0,0,0,.69-.65,3,3,0,0,0,.4-1.05h2.4a6.46,6.46,0,0,1-.83,2.29A4,4,0,0,1,105.39,12a4.22,4.22,0,0,1-2.06.5A4.94,4.94,0,0,1,100.94,12Z"/>
                <path class="cls-1" d="M112.22,12a3.58,3.58,0,0,1-1.4-1.41,4.35,4.35,0,0,1-.49-2.11V5.4a4.39,4.39,0,0,1,.49-2.12,3.58,3.58,0,0,1,1.4-1.41,4.7,4.7,0,0,1,4.18,0,3.56,3.56,0,0,1,1.39,1.41,4.4,4.4,0,0,1,.5,2.12V8.49a4.36,4.36,0,0,1-.5,2.11A3.56,3.56,0,0,1,116.4,12a4.7,4.7,0,0,1-4.18,0Zm3.06-1.8a1.56,1.56,0,0,0,.65-.67,2.14,2.14,0,0,0,.23-1V5.34a2.14,2.14,0,0,0-.23-1,1.56,1.56,0,0,0-.65-.67,1.91,1.91,0,0,0-1-.24,2,2,0,0,0-1,.24,1.62,1.62,0,0,0-.65.67,2.14,2.14,0,0,0-.23,1v3.2a2.14,2.14,0,0,0,.23,1,1.62,1.62,0,0,0,.65.67,2,2,0,0,0,1,.24A1.91,1.91,0,0,0,115.28,10.21Z"/>
                <path class="cls-1" d="M121.08,1.49h2.51l4.06,8.35-.18.2V1.49h2V12.38h-2.53l-4-8.22.18-.2v8.42h-2Z"/>
                <path class="cls-1" d="M132.6,1.49h2.52l4,8.35L139,10V1.49h2V12.38h-2.53l-4-8.22.18-.2v8.42h-2Z"/>
                <path class="cls-1" d="M144.13,1.49h2.05v10.9h-2.05Zm.74,0h6.56v2h-6.56Zm0,4.5h5.73V8h-5.73Zm0,4.42h6.56v2h-6.56Z"/>
                <path class="cls-1" d="M155.66,12a3.18,3.18,0,0,1-1.35-1.39,4.8,4.8,0,0,1-.46-2.2v-3a4.77,4.77,0,0,1,.46-2.2,3.18,3.18,0,0,1,1.35-1.39,4.41,4.41,0,0,1,2.13-.48,3.71,3.71,0,0,1,1.84.44A3.64,3.64,0,0,1,161,3.1a5.79,5.79,0,0,1,.73,2h-2.13a2.65,2.65,0,0,0-.37-.92,1.8,1.8,0,0,0-.61-.59,1.64,1.64,0,0,0-.8-.2,1.9,1.9,0,0,0-1,.24,1.49,1.49,0,0,0-.62.69A2.55,2.55,0,0,0,156,5.45v3a2.55,2.55,0,0,0,.21,1.09,1.47,1.47,0,0,0,.62.68,1.9,1.9,0,0,0,1,.24,1.64,1.64,0,0,0,1.42-.78,2.82,2.82,0,0,0,.36-.93h2.13a5.73,5.73,0,0,1-.74,2,3.61,3.61,0,0,1-1.33,1.28,3.71,3.71,0,0,1-1.84.44A4.41,4.41,0,0,1,155.66,12Z"/>
                <path class="cls-1" d="M162.84,1.49h8v2h-8Zm3,.89h2.06v10h-2.06Z"/>
            </g>
            <g id="Nodes">
                <line class="cls-2" x1="34.68" y1="40.18" x2="6.88" y2="24.12"/>
                <rect class="cls-1" x="19.34" y="16.1" width="2.88" height="32.1" transform="translate(-17.45 34.07) rotate(-60)"/>
                <line class="cls-2" x1="6.88" y1="24.12" x2="34.68" y2="8.07"/>
                <rect class="cls-1" x="4.73" y="14.66" width="32.1" height="2.88" transform="translate(-5.26 12.55) rotate(-30)"/>

                <circle id="datacircle" class="cls-1" cx="34.68" cy="8.07" r="3.5">
                    <animate id="anim1" attributeName="cx"
                        from="34.68" to="6.88"
                        begin="circle1bigger.end" dur="1s" fill="freeze"
                        calcMode="spline" keyTimes="0;1" keySplines="0.1 0.8 0.9 0.1"
                    />
                    <animate id="anim2" attributeName="cy"
                        from="8.07" to="24.12"
                        begin="circle1bigger.end" dur="1s" fill="freeze"      
                        calcMode="spline" keyTimes="0;1" keySplines="0.1 0.8 0.9 0.1"              
                    />

                    <animate id="anim3" attributeName="cx"
                        from="6.88" to="34.68"
                        begin="circle2bigger.end" dur="1s" fill="freeze"
                        calcMode="spline" keyTimes="0;1" keySplines="0.1 0.8 0.9 0.1"
                    />
                    <animate id="anim4" attributeName="cy" 
                        from="24.23" to="40.18"
                        begin="circle2bigger.end" dur="1s" fill="freeze"
                        calcMode="spline" keyTimes="0;1" keySplines="0.1 0.8 0.9 0.1"
                    />
                    <animate id="wait" dur="5s" begin="anim4.end" fill="freeze"/>
                </circle>

                <circle class="cls-1" cx="34.68" cy="8.07" r="6.88">
                    <animate id="circle1bigger" attributeName="r" additive="sum"
                        to="7.8" begin="2s; wait.end" dur=".15s" fill="freeze"
                        calcMode="spline" keyTimes="0;1" keySplines=".42,0,.58,1"
                    />
                    <animate id="circle1smaller" attributeName="r" additive="sum"
                        to="6.88" begin="circle1bigger.end" dur=".15s" fill="freeze"
                        calcMode="spline" keyTimes="0;1" keySplines=".42,0,.58,1"
                    />
                </circle>
                <circle class="cls-1" cx="6.88" cy="24.12" r="6.88">
                    <animate id="circle2bigger" attributeName="r" additive="sum"
                        to="7.8" begin="anim2.end" dur=".15s" fill="freeze"
                        calcMode="spline" keyTimes="0;1" keySplines=".42,0,.58,1"
                    />
                    <animate id="circle2smaller" attributeName="r" additive="sum"
                        to="6.88" begin="circle2bigger.end" dur=".15s" fill="freeze"
                        calcMode="spline" keyTimes="0;1" keySplines=".42,0,.58,1"
                    />
                </circle>
                <circle class="cls-1" cx="34.68" cy="40.18" r="6.88">
                    <animate id="circle3bigger" attributeName="r" additive="sum"
                        to="7.8" begin="anim3.end" dur=".15s" fill="freeze"
                        calcMode="spline" keyTimes="0;1" keySplines=".42,0,.58,1"
                    />
                    <animate id="circle3smaller" attributeName="r" additive="sum"
                        to="6.88" begin="circle3bigger.end" dur=".15s" fill="freeze"
                        calcMode="spline" keyTimes="0;1" keySplines=".42,0,.58,1"
                    />
                </circle>
            </g>
        </g>
    </g>
</svg>